<svg xmlns="http://www.w3.org/2000/svg" viewBox="0 0 108.82 187.33"><title>flame-1</title><g id="d6ad66ae-3189-41ba-af83-4b1026822f70" data-name="Слой 2"><g id="8c5ac6ea-82c0-436f-b7cb-605d4a5577ec" data-name="Objects"><g id="cf35cbf6-a997-4a23-bcff-2773ae6e2d42" data-name="&lt;Группа&gt;"><g id="4d60374a-183e-49b1-82da-0de536e613f5" data-name="&lt;Группа&gt;"><path id="684e56aa-1a43-4c02-b99a-d666de6281d8" data-name="&lt;Контур&gt;" d="M94.45,86.76l.42-1.83c7.69,7.67,11.51,18.75,13.34,29.46,2.4,14.11-2.62,34.59-8.61,44.9-8.94,15.4-21.48,24.16-48.16,28C70.07,175.93,86.87,159,82.75,134,81.12,136,76,142,70.81,144.71A43,43,0,0,0,52.51,103c7.68,11.61,4.67,29-6.46,37.33A37.82,37.82,0,0,1,21.87,121c-3.42,10.45-5.38,23.45-2,33.92,3.77,11.72,7.23,17.42,20.51,31.66a63.23,63.23,0,0,1-26-99.28A34.79,34.79,0,0,0,36.9,107,71.72,71.72,0,0,1,24.06,47.4,71.72,71.72,0,0,1,62.43,0C50,15,47.72,37.78,57,54.95c9.05,16.68,27.27,27.41,34.43,45Z" fill="#f56700"/><path id="2990c8e3-db86-4a03-9c95-76d67b99a383" data-name="&lt;Контур&gt;" d="M58.31,145.44a16.54,16.54,0,0,1-1.42-3.6c-3.36,9-5.82,7-9.82,12a14.91,14.91,0,0,0-2.82,8c0,.38-.5-4.71-5.12-6.56-3.16-1.26-7.3-2.5-9.14-5.35-3.66,15.51,7.88,24.54,13.07,32.57,1.38-1.35,3.27-2,5-2.84,5.7-3,9.06-5,13-8.78A31.13,31.13,0,0,0,69.92,155c-2.74,2.67-6.55,3.85-11.16,4.07C62.27,154.15,60.24,149,58.31,145.44Z" fill="#ffce00"/></g></g></g></g></svg>