<svg version="1.1" xmlns="http://www.w3.org/2000/svg" xmlns:xlink="http://www.w3.org/1999/xlink" width="107" height="45" viewBox="0 0 107 45">
<path id="st-1" d="M86.487,88.365 L86.487,19.986 L69.319,19.986 L69.319,4.869 L106.291,1.822 L106.291,88.365 L86.487,88.365 zM29.644,89.596 C20.659,89.596 13.452,86.715 8.023,80.953 C2.593,75.192 -0.122,67.213 -0.122,57.017 C-0.122,57.017 -0.122,34.400 -0.122,34.400 C-0.122,24.205 2.573,16.227 7.964,10.465 C13.355,4.703 20.542,1.822 29.527,1.822 C38.433,1.822 45.620,4.713 51.089,10.494 C56.558,16.276 59.292,24.244 59.292,34.400 C59.292,34.400 59.292,57.017 59.292,57.017 C59.292,67.213 56.577,75.192 51.148,80.953 C45.718,86.715 38.550,89.596 29.644,89.596 zM39.546,33.053 C39.546,27.858 38.657,23.893 36.880,21.158 C35.102,18.424 32.651,17.057 29.527,17.057 C26.363,17.057 23.921,18.424 22.202,21.158 C20.483,23.893 19.624,27.858 19.624,33.053 C19.624,33.053 19.624,58.248 19.624,58.248 C19.624,63.561 20.493,67.574 22.232,70.289 C23.969,73.004 26.440,74.361 29.644,74.361 C32.768,74.361 35.200,73.004 36.939,70.289 C38.676,67.574 39.546,63.561 39.546,58.248 C39.546,58.248 39.546,33.053 39.546,33.053 z" fill="#3B3B3B" />
</svg>
