<svg version="1.1" xmlns="http://www.w3.org/2000/svg" xmlns:xlink="http://www.w3.org/1999/xlink" width="125" height="45" viewBox="0 0 125 45">
<path id="st-2" d="M124.547,72.131 L124.547,87.365 L65.250,87.365 L65.250,74.474 C65.250,74.474 91.500,45.646 91.500,45.646 C95.015,41.662 97.593,38.108 99.234,34.982 C100.875,31.858 101.695,29.143 101.695,26.838 C101.695,23.518 100.952,20.890 99.468,18.957 C97.983,17.023 95.601,16.057 92.320,16.057 C89.234,16.057 86.841,17.316 85.142,19.836 C83.443,22.355 82.593,25.569 82.593,29.474 C82.593,29.474 63.199,29.474 63.199,29.474 C63.199,29.474 63.082,29.123 63.082,29.123 C62.886,21.233 65.484,14.543 70.875,9.055 C76.265,3.567 83.414,0.822 92.320,0.822 C101.656,0.822 108.863,3.117 113.941,7.707 C119.019,12.297 121.558,18.615 121.558,26.662 C121.558,32.053 120.152,36.828 117.339,40.988 C114.527,45.148 109.371,51.292 101.871,59.416 C101.871,59.416 91.500,71.838 91.500,71.838 L91.617,72.131 L124.547,72.131 zM29.444,88.596 C20.459,88.596 13.252,85.715 7.823,79.953 C2.393,74.192 -0.321,66.213 -0.321,56.017 C-0.321,56.017 -0.321,33.400 -0.321,33.400 C-0.321,23.205 2.374,15.227 7.764,9.465 C13.155,3.703 20.342,0.822 29.327,0.822 C38.233,0.822 45.420,3.713 50.889,9.494 C56.358,15.276 59.093,23.244 59.093,33.400 C59.093,33.400 59.093,56.017 59.093,56.017 C59.093,66.213 56.377,74.192 50.948,79.953 C45.518,85.715 38.350,88.596 29.444,88.596 zM39.347,32.053 C39.347,26.858 38.458,22.893 36.681,20.158 C34.903,17.424 32.452,16.057 29.327,16.057 C26.163,16.057 23.721,17.424 22.003,20.158 C20.283,22.893 19.425,26.858 19.425,32.053 C19.425,32.053 19.425,57.248 19.425,57.248 C19.425,62.561 20.293,66.574 22.032,69.289 C23.770,72.004 26.241,73.361 29.444,73.361 C32.569,73.361 35.001,72.004 36.739,69.289 C38.477,66.574 39.347,62.561 39.347,57.248 C39.347,57.248 39.347,32.053 39.347,32.053 z" fill="#3B3B3B" />
</svg>
