<svg version="1.1" xmlns="http://www.w3.org/2000/svg" xmlns:xlink="http://www.w3.org/1999/xlink" width="126" height="45" viewBox="0 0 126 45">
<path id="st-3" d="M110.953,43.537 C115.562,45.217 119.117,47.747 121.617,51.125 C124.116,54.504 125.367,58.616 125.367,63.459 C125.367,71.272 122.368,77.414 116.373,81.887 C110.376,86.360 102.729,88.596 93.433,88.596 C85.386,88.596 78.394,86.496 72.457,82.297 C66.519,78.098 63.647,72.014 63.843,64.045 C63.843,64.045 63.961,63.693 63.961,63.693 C63.961,63.693 83.238,63.693 83.238,63.693 C83.238,66.467 84.195,68.772 86.109,70.607 C88.022,72.444 90.464,73.361 93.433,73.361 C96.987,73.361 99.908,72.375 102.193,70.402 C104.478,68.430 105.621,65.978 105.621,63.049 C105.621,58.909 104.537,55.891 102.369,53.996 C100.201,52.102 97.144,51.154 93.199,51.154 C93.199,51.154 83.824,51.154 83.824,51.154 L83.824,36.447 C83.824,36.447 93.199,36.447 93.199,36.447 C96.753,36.447 99.488,35.490 101.402,33.576 C103.315,31.663 104.273,29.006 104.273,25.607 C104.273,22.951 103.296,20.695 101.343,18.840 C99.390,16.985 96.753,16.057 93.433,16.057 C90.933,16.057 88.813,16.789 87.076,18.254 C85.337,19.719 84.468,21.643 84.468,24.025 C84.468,24.025 65.250,24.025 65.250,24.025 C65.250,24.025 65.132,23.674 65.132,23.674 C64.898,16.877 67.564,11.369 73.130,7.150 C78.697,2.932 85.464,0.822 93.433,0.822 C102.691,0.822 110.103,2.942 115.670,7.180 C121.236,11.418 124.019,17.424 124.019,25.197 C124.019,29.064 122.847,32.619 120.504,35.861 C118.160,39.104 114.976,41.662 110.953,43.537 zM29.444,88.596 C20.459,88.596 13.252,85.715 7.823,79.953 C2.393,74.192 -0.321,66.213 -0.321,56.017 C-0.321,56.017 -0.321,33.400 -0.321,33.400 C-0.321,23.205 2.374,15.227 7.764,9.465 C13.155,3.703 20.342,0.822 29.327,0.822 C38.233,0.822 45.420,3.713 50.889,9.494 C56.358,15.276 59.093,23.244 59.093,33.400 C59.093,33.400 59.093,56.017 59.093,56.017 C59.093,66.213 56.377,74.192 50.948,79.953 C45.518,85.715 38.350,88.596 29.444,88.596 zM39.347,32.053 C39.347,26.858 38.458,22.893 36.681,20.158 C34.903,17.424 32.452,16.057 29.327,16.057 C26.163,16.057 23.721,17.424 22.003,20.158 C20.283,22.893 19.425,26.858 19.425,32.053 C19.425,32.053 19.425,57.248 19.425,57.248 C19.425,62.561 20.293,66.574 22.032,69.289 C23.770,72.004 26.241,73.361 29.444,73.361 C32.569,73.361 35.001,72.004 36.739,69.289 C38.477,66.574 39.347,62.561 39.347,57.248 C39.347,57.248 39.347,32.053 39.347,32.053 z" fill="#3B3B3B" />
</svg>
