<svg version="1.1" xmlns="http://www.w3.org/2000/svg" xmlns:xlink="http://www.w3.org/1999/xlink" width="59" height="76" viewBox="0 0 59 76">
<defs>
<filter id="Векторный-смарт--fx" filterUnits="userSpaceOnUse">
<feFlood flood-color="#3B3B3B" flood-opacity="1.000"/>
<feComposite operator="in" in2="SourceGraphic"/>
<feBlend mode="normal" in2="SourceGraphic" result="colorOverlay"/>
</filter>
</defs>
<path id="Векторный-смарт-" d="M57.000,75.000 C56.000,75.000 55.000,75.000 54.000,75.000 C51.334,63.654 40.845,56.839 39.000,45.000 C39.333,45.000 39.667,45.000 40.000,45.000 C44.040,51.472 49.802,56.344 52.000,65.000 C52.333,65.000 52.667,65.000 53.000,65.000 C53.000,63.667 53.000,62.333 53.000,61.000 C49.431,56.045 48.661,44.079 46.000,38.000 C40.974,26.518 30.419,12.061 19.000,7.000 C13.335,4.489 6.124,5.071 -0.000,3.000 C-0.000,2.667 -0.000,2.333 -0.000,2.000 C3.352,0.802 9.161,0.939 14.000,1.000 C16.620,3.243 20.948,3.106 24.000,5.000 C30.473,9.016 37.952,17.532 42.000,24.000 C46.069,30.501 49.269,38.740 52.000,46.000 C53.642,50.364 53.290,55.778 56.000,59.000 C55.830,54.535 56.053,49.520 59.000,48.000 C59.000,49.666 59.000,51.334 59.000,53.000 C57.178,55.524 56.946,70.436 57.000,75.000 z" fill="#000000" filter="url(#Векторный-смарт--fx)" />
</svg>
