<svg xmlns="http://www.w3.org/2000/svg" viewBox="0 0 71.41 63.61"><title>calendar</title><g id="c9a1611c-82a9-4140-a632-b08d29e145e5" data-name="Слой 2"><g id="dd8ec133-b56d-4803-b96b-5d5cdfe11267" data-name="Layer 1"><path d="M67.6,0H7.41A3.89,3.89,0,0,0,3.6,4V53.19a3.89,3.89,0,0,0,3.81,4H67.6a3.89,3.89,0,0,0,3.81-4V3.92A3.86,3.86,0,0,0,67.6,0Z" fill="#f1f2f4"/><path d="M64.49,5.11H11A3.36,3.36,0,0,0,7.64,8.49V50A3.36,3.36,0,0,0,11,53.38H64.49A3.36,3.36,0,0,0,67.87,50V8.42A3.34,3.34,0,0,0,64.49,5.11Z" fill="#fff"/><path d="M64.49,3.3H11A3.36,3.36,0,0,0,7.64,6.68v8H67.87v-8A3.41,3.41,0,0,0,64.49,3.3Z" fill="#ff5f8d"/><rect x="30.55" y="18.02" width="4.8" height="4.8" fill="#e6e9ee"/><rect x="40.16" y="18.02" width="4.8" height="4.8" fill="#e6e9ee"/><rect x="49.76" y="18.02" width="4.8" height="4.8" fill="#e6e9ee"/><rect x="21.02" y="26.76" width="4.8" height="4.8" fill="#e6e9ee"/><rect x="30.55" y="26.76" width="4.8" height="4.8" fill="#e6e9ee"/><rect x="40.16" y="26.76" width="4.8" height="4.8" fill="#e6e9ee"/><rect x="49.76" y="26.76" width="4.8" height="4.8" fill="#e6e9ee"/><rect x="21.02" y="35.58" width="4.8" height="4.8" fill="#e6e9ee"/><rect x="30.55" y="35.58" width="4.8" height="4.8" fill="#e6e9ee"/><rect x="40.16" y="35.58" width="4.8" height="4.8" fill="#e6e9ee"/><rect x="49.76" y="35.58" width="4.8" height="4.8" fill="#e6e9ee"/><rect x="21.02" y="44.32" width="4.8" height="4.8" fill="#e6e9ee"/><rect x="30.55" y="44.32" width="4.8" height="4.8" fill="#e6e9ee"/><rect x="40.16" y="44.32" width="4.8" height="4.8" fill="#e6e9ee"/><path d="M18.11,27.39h0A18.11,18.11,0,0,0,0,45.5H0A18.11,18.11,0,0,0,18.11,63.61h0A18.11,18.11,0,0,0,36.22,45.5h0A18.11,18.11,0,0,0,18.11,27.39Z" fill="#ffc022"/><path d="M18.11,31.49h0a14,14,0,0,0-14,14h0a14,14,0,0,0,14,14h0a14,14,0,0,0,14-14h0A14.1,14.1,0,0,0,18.11,31.49Z" fill="#fff"/><path d="M17.56,37.23l-.63,10.08A1.12,1.12,0,0,0,18,48.57a1.16,1.16,0,0,0,1.18-1.18l-.63-10.16a.51.51,0,0,0-.47-.47h0A.69.69,0,0,0,17.56,37.23Z" fill="#2b3b4e"/><path d="M25,44.16l-9.21.63a1.05,1.05,0,0,0-1,1.1,1.09,1.09,0,0,0,1.26.94L25.2,45c.24-.08.39-.24.31-.47h0A.5.5,0,0,0,25,44.16Z" fill="#324a5e"/><circle cx="18.11" cy="45.5" r="1.65" fill="#ff7058"/><circle cx="18.11" cy="33.69" r="1.1" fill="#e6e9ee"/><circle cx="18.11" cy="56.76" r="1.1" fill="#e6e9ee"/><circle cx="29.61" cy="45.19" r="1.1" fill="#e6e9ee"/><circle cx="6.54" cy="45.19" r="1.1" fill="#e6e9ee"/><circle cx="26.22" cy="37.08" r="1.1" fill="#e6e9ee"/><circle cx="9.92" cy="53.38" r="1.1" fill="#e6e9ee"/><circle cx="26.22" cy="53.38" r="1.1" fill="#e6e9ee"/><circle cx="9.92" cy="37.08" r="1.1" fill="#e6e9ee"/><circle cx="52.99" cy="9.2" r="2.44" fill="#fff"/><circle cx="22.6" cy="9.2" r="2.44" fill="#fff"/></g></g></svg>