<?xml version="1.0" encoding="UTF-8" standalone="no"?>
<svg
   xmlns:dc="http://purl.org/dc/elements/1.1/"
   xmlns:cc="http://creativecommons.org/ns#"
   xmlns:rdf="http://www.w3.org/1999/02/22-rdf-syntax-ns#"
   xmlns:svg="http://www.w3.org/2000/svg"
   xmlns="http://www.w3.org/2000/svg"
   xmlns:sodipodi="http://sodipodi.sourceforge.net/DTD/sodipodi-0.dtd"
   xmlns:inkscape="http://www.inkscape.org/namespaces/inkscape"
   width="582.87073"
   height="582.81287"
   viewBox="0 0 466.29658 466.25029"
   version="1.1"
   id="svg2"
   inkscape:version="0.91 r13725"
   sodipodi:docname="ses.svg">
  <metadata
     id="metadata48">
    <rdf:RDF>
      <cc:Work
         rdf:about="">
        <dc:format>image/svg+xml</dc:format>
        <dc:type
           rdf:resource="http://purl.org/dc/dcmitype/StillImage" />
        <dc:title></dc:title>
      </cc:Work>
    </rdf:RDF>
  </metadata>
  <defs
     id="defs46" />
  <sodipodi:namedview
     pagecolor="#ffffff"
     bordercolor="#666666"
     borderopacity="1"
     objecttolerance="10"
     gridtolerance="10"
     guidetolerance="10"
     inkscape:pageopacity="0"
     inkscape:pageshadow="2"
     inkscape:window-width="1920"
     inkscape:window-height="1027"
     id="namedview44"
     showgrid="false"
     inkscape:zoom="1.475"
     inkscape:cx="370.68616"
     inkscape:cy="383.0563"
     inkscape:window-x="-8"
     inkscape:window-y="-8"
     inkscape:window-maximized="1"
     inkscape:current-layer="svg2"
     fit-margin-top="0"
     fit-margin-left="0"
     fit-margin-right="0"
     fit-margin-bottom="0"
     units="px" />
  <path
     d="m -23.094107,-21.428485 511.999997,0 0,511.999995 -511.999997,0 0,-511.999995 z"
     id="path4"
     inkscape:connector-curvature="0"
     style="fill:#ffffff" />
  <path
     d="m 207.46589,1.3715147 c 28.17,-3 56.91,-1.12000003 84.34,6.05 58.36,14.8300003 110.01,53.5900003 140.98,105.1599953 24.15,39.62 35.66,86.6 33.18,132.88 -2.06,40.91 -15.16,81.22 -37.74,115.4 -20.99,32.17 -50.13,58.94 -83.89,77.26 -55.73,30.57 -124.14,36.5 -184.4,16.43 -51.4,-16.84 -96.359997,-52.31 -124.809997,-98.3 -29.8899998,-47.47 -41.2099998,-105.98 -32.0099998,-161.25 7.1799998,-44.54 27.8899998,-86.72 58.4999998,-119.839995 37.63,-41.09 90.399997,-67.9600003 145.849997,-73.7900003 z"
     id="path6"
     inkscape:connector-curvature="0"
     style="fill:#d9181f" />
  <path
     d="m 60.005893,100.50036 c 37.81,-50.729995 99.199997,-82.388845 162.439997,-84.948845 l -0.01,0.8 c -0.1,32.83 0.03,65.65 -0.06,98.479995 -64.35,36.08 -128.729997,72.12 -193.099997,108.15 -3.91,1.3 -8.21,0.29 -12.27,0.59 1.2,-30.59 8.88,-60.94 22.67,-88.28 1.72,-3.48 4.01,-6.76 4.66,-10.67 0.14,-0.51 7.972171,-13.91759 8.362171,-14.27759 2.75,-1.94 -9.696056,18.62015 -8.946056,15.41015 0.44,-1.23 13.485879,-26.156305 9.761528,-11.08731 -1.132902,-2.66789 -0.779125,-4.69256 0.489447,-5.93113 0,0 -5.467013,7.85893 -4.345199,7.21125 1.64455,-4.18855 2.458109,-4.86652 10.348109,-15.44652 z"
     id="path8"
     inkscape:connector-curvature="0"
     style="fill:#36549d"
     sodipodi:nodetypes="cccccccccccccc" />
  <path
     d="m 222.43589,16.351515 c 6.07,-0.82 12.22,-0.5 18.32,-0.39 -0.23,32.95 -0.02,65.92 -0.1,98.889995 64.29,36.06 128.62,72.06 192.94,108.06 5.01,1.51 10.48,0.25 15.67,0.66 0.06,6.15 0.48,12.34 -0.29,18.46 -5,0.42 -10.18,-0.63 -15.07,0.5 -55.18,30.88 -110.41,61.68 -165.49,92.73 -0.27,0.13 -0.82,0.37 -1.09,0.49 -23.89,2.16 -47.94,2.23 -71.81,-0.06 -0.25,-0.11 -0.73,-0.33 -0.98,-0.44 -52.12,-29.43 -104.429997,-58.53 -156.629997,-87.81 -3.35,-1.68 -6.39,-4.03 -9.94,-5.27 -3.63,-0.3 -7.27,-0.02 -10.91,-0.09 -0.15,-6.17 -0.15,-12.34 -0.05,-18.51 4.06,-0.3 8.36,0.71 12.27,-0.59 64.37,-36.03 128.749997,-72.07 193.099997,-108.15 0.09,-32.829995 -0.04,-65.649995 0.06,-98.479995 z"
     id="path10"
     inkscape:connector-curvature="0"
     style="fill:#e1474d" />
  <path
     d="m 240.75589,15.961515 0.38,-0.76 c 30.13,1.43 60.1,8.53 87.2,21.92 22.44,10.87 43.02,25.64 60.36,43.58 7.7,7.74 14.94,16.07 21.07,25.099995 3.38593,4.33763 6.26593,8.75644 8.81,13.18 1.25,1.4 2.23,3.06 2.87,4.83 0.42,1.59 0.8,3.23 1.61,4.7 16,29.06 24.99,61.91 26.21,95.06 -5.19,-0.41 -10.66,0.85 -15.67,-0.66 -64.32,-36 -128.65,-72 -192.94,-108.06 0.08,-32.969995 -0.13,-65.939995 0.1,-98.889995 z"
     id="path12"
     inkscape:connector-curvature="0"
     style="fill:#36549d"
     sodipodi:nodetypes="cccccccccccc" />
  <path
     d="m 421.44589,123.81151 c 17.96,30.07 27.82,64.82 29.38,99.76 -0.39,0 -1.17,0 -1.56,0 -1.22,-33.15 -10.21,-66 -26.21,-95.06 -0.81,-1.47 -1.19,-3.11 -1.61,-4.7 z"
     id="path22"
     inkscape:connector-curvature="0"
     style="fill:#022a87" />
  <path
     d="m 15.445893,223.58151 c 1.59,-34.64 11.29,-69.03 28.89,-98.96 -0.65,3.91 -2.94,7.19 -4.66,10.67 -13.79,27.34 -21.47,57.69 -22.67,88.28 l -1.56,0.01 z"
     id="path24"
     inkscape:connector-curvature="0"
     style="fill:#022a87" />
  <path
     d="m 231.43589,130.73151 c 60.8,33.98 121.57,68.02 182.31,102.1 -10.93,6.08 -21.83,12.23 -32.75,18.31 -16.05,-12.5 -32.16,-24.92 -48.23,-37.4 -3.32,-2.37 -6.34,-5.84 -10.68,-6.12 -3.84,-0.51 -8.1,0.33 -10.71,3.4 -2.03,2.41 -5.37,3.75 -8.45,2.75 -4.27,-0.86 -6.82,-5.12 -11.12,-5.87 -5.37,-1.02 -11.63,-0.12 -15.56,3.99 -14,15.32 -27.96,30.69 -42.33,45.66 -2.41,2.7 -5.04,5.19 -7.81,7.52 -14.38,-0.03 -28.76,0.02 -43.14,-0.01 -2.94,0.24 -5.37,-1.55 -8.08,-2.29 -5.11,-0.6 -10.67,-0.2 -15.3,-2.79 -6.4,-5.9 -12.19,-12.48 -18.66,-18.31 -9.79,-6.77 -24.68,-0.52 -27.6,10.83 -2.71,-0.1 -5.7,-0.27 -7.99,1.48 -2.66,1.67 -3.86,4.69 -4.98,7.47 -17.019997,-9.58 -34.079997,-19.09 -51.109997,-28.63 60.699997,-34.08 121.489997,-68.01 182.189997,-102.09 z"
     id="path26"
     inkscape:connector-curvature="0"
     style="fill:#ffffff" />
  <path
     d="m 231.46589,154.26151 c 2.23,6.48 4.22,13.04 6.42,19.53 6.86,0.04 13.73,-0.07 20.59,0.06 -5.46,4.17 -11.07,8.13 -16.62,12.17 2.01,6.48 4.28,12.89 6.2,19.4 -5.7,-3.74 -11.02,-8.01 -16.64,-11.86 -5.49,4.08 -11.04,8.11 -16.62,12.08 2.1,-6.49 4.12,-13.01 6.39,-19.44 -5.41,-4.32 -11.27,-8.05 -16.65,-12.4 6.84,-0.03 13.68,0.01 20.52,-0.01 2.27,-6.47 4.26,-13.03 6.41,-19.53 z"
     id="path28"
     inkscape:connector-curvature="0"
     style="fill:#fae246" />
  <path
     d="m 276.24589,211.89151 c 3.93,-4.11 10.19,-5.01 15.56,-3.99 4.3,0.75 6.85,5.01 11.12,5.87 3.08,1 6.42,-0.34 8.45,-2.75 2.61,-3.07 6.87,-3.91 10.71,-3.4 4.34,0.28 7.36,3.75 10.68,6.12 16.07,12.48 32.18,24.9 48.23,37.4 -24.23,13.54 -48.4,27.19 -72.68,40.61 -51.23,0.12 -102.46,0.12 -153.68,0 -18.15,-9.98 -36.17,-20.24 -54.28,-30.3 1.12,-2.78 2.32,-5.8 4.98,-7.47 2.29,-1.75 5.28,-1.58 7.99,-1.48 2.92,-11.35 17.81,-17.6 27.6,-10.83 6.47,5.83 12.26,12.41 18.66,18.31 4.63,2.59 10.19,2.19 15.3,2.79 2.71,0.74 5.14,2.53 8.08,2.29 14.38,0.03 28.76,-0.02 43.14,0.01 2.77,-2.33 5.4,-4.82 7.81,-7.52 14.37,-14.97 28.33,-30.34 42.33,-45.66 z"
     id="path30"
     inkscape:connector-curvature="0"
     style="fill:#36a15b" />
  <path
     d="m 433.90589,242.53151 c 4.89,-1.13 10.07,-0.08 15.07,-0.5 0.46,-0.03 1.37,-0.08 1.82,-0.11 -3.1,2.45 -5.06,5.95 -7.61,8.9 -20.07,24.23 -46.18,42.93 -74.37,56.62 -23.93,11.54 -49.49,19.6 -75.6,24.44 -8.21,1.44 -16.46,2.91 -24.8,3.38 55.08,-31.05 110.31,-61.85 165.49,-92.73 z"
     id="path34"
     inkscape:connector-curvature="0"
     style="fill:#36549d" />
  <path
     d="m 15.395893,242.09151 1.66,-0.01 c 0.23,2.56 -0.08,5.49 1.86,7.51 21.58,26.57 50.4,46.54 81.389997,60.65 27.75,12.61 57.5,20.56 87.7,24.48 2.17,0.27 4.35,0.35 6.53,0.53 0.25,0.11 0.73,0.33 0.98,0.44 8.96,5.01 17.91,10.06 26.88,15.05 -0.08,33.22 0.18,66.44 -0.13,99.66 -24.34,-0.46 -48.4,-6.37 -70.96,-15.33 -30.83,-12.52 -58.709997,-32.19 -80.799997,-57.06 -33.39,-37.12 -53.11,-86.06 -55.11,-135.92 z"
     id="path36"
     inkscape:connector-curvature="0"
     style="fill:#022a87" />
  <path
     d="m 17.055893,242.08151 c 3.64,0.07 7.28,-0.21 10.91,0.09 3.55,1.24 6.59,3.59 9.94,5.27 52.2,29.28 104.509997,58.38 156.629997,87.81 -2.18,-0.18 -4.36,-0.26 -6.53,-0.53 -30.2,-3.92 -59.95,-11.87 -87.7,-24.48 -30.989997,-14.11 -59.809997,-34.08 -81.389997,-60.65 -1.94,-2.02 -1.63,-4.95 -1.86,-7.51 z"
     id="path38"
     inkscape:connector-curvature="0"
     style="fill:#36549d" />
  <path
     d="m 443.18589,250.82151 c 2.55,-2.95 4.51,-6.45 7.61,-8.9 -1.4,40 -14.4,79.48 -36.79,112.64 -29.28,43.81 -74.95,76.34 -126.01,89.45 -15.45,3.86 -31.34,6.75 -47.32,6.3 -0.04,-33.19 0.02,-66.37 -0.03,-99.56 8.87,-5.04 17.81,-9.96 26.68,-15 0.27,-0.12 0.82,-0.36 1.09,-0.49 8.34,-0.47 16.59,-1.94 24.8,-3.38 26.11,-4.84 51.67,-12.9 75.6,-24.44 28.19,-13.69 54.3,-32.39 74.37,-56.62 z"
     id="path40"
     inkscape:connector-curvature="0"
     style="fill:#022a87" />
  <path
     d="m 154.63589,291.75151 c 51.22,0.12 102.45,0.12 153.68,0 -25.59,14.51 -51.26,28.88 -77,43.12 -25.46,-14.54 -51.2,-28.6 -76.68,-43.12 z"
     id="path42"
     inkscape:connector-curvature="0"
     style="fill:#ffffff" />
  <path
     sodipodi:nodetypes="cccccccccccccc"
     style="fill:#36549d"
     inkscape:connector-curvature="0"
     id="path4176"
     d="m 60.005893,100.50036 c 37.81,-50.729995 99.199997,-82.388845 162.439997,-84.948845 l -0.01,0.8 c -0.1,32.83 0.03,65.65 -0.06,98.479995 -64.35,36.08 -128.729997,72.12 -193.099997,108.15 -3.91,1.3 -8.21,0.29 -12.27,0.59 1.2,-30.59 8.88,-60.94 22.67,-88.28 1.72,-3.48 4.01,-6.76 4.66,-10.67 0.14,-0.51 19.262294,-13.72665 8.170414,-13.41468 2.75,-1.94 -9.504299,17.75724 -8.754299,14.54724 0.44,-1.23 9.274392,-15.3392 7.172798,-12.42961 3.318943,1.46559 1.809605,-3.35026 3.078177,-4.58883 0,0 -5.467013,7.85893 -4.345199,7.21125 1.64455,-4.18855 2.458109,-4.86652 10.348109,-15.44652 z" />
  <path
     style="fill:none;fill-rule:evenodd;stroke:#000000;stroke-width:0.80000001px;stroke-linecap:butt;stroke-linejoin:miter;stroke-opacity:1"
     d="M 51.97906,112.04167 Z"
     id="path4178"
     inkscape:connector-curvature="0" />
</svg>
